<mxfile host="app.diagrams.net" modified="2023-03-14T10:03:49.475Z" agent="5.0 (Windows NT 10.0; Win64; x64) AppleWebKit/537.36 (KHTML, like Gecko) Chrome/111.0.0.0 Safari/537.36" etag="9iFV8sjq0oVkz5HxJPsa" version="21.0.6" type="github">
  <diagram name="第 1 页" id="nw_0X3deVbQLb4nt9ZDD">
    <mxGraphModel dx="1195" dy="590" grid="1" gridSize="10" guides="1" tooltips="1" connect="1" arrows="1" fold="1" page="1" pageScale="1" pageWidth="827" pageHeight="1169" math="1" shadow="0">
      <root>
        <mxCell id="0" />
        <mxCell id="1" parent="0" />
        <mxCell id="_82w5ZN5nvYz6WjIuBWI-2" value="&lt;font style=&quot;font-size: 15px;&quot;&gt;$$\times$$&lt;/font&gt;" style="ellipse;whiteSpace=wrap;html=1;aspect=fixed;" vertex="1" parent="1">
          <mxGeometry x="260" y="530" width="20" height="20" as="geometry" />
        </mxCell>
        <mxCell id="_82w5ZN5nvYz6WjIuBWI-3" value="" style="ellipse;whiteSpace=wrap;html=1;aspect=fixed;" vertex="1" parent="1">
          <mxGeometry x="60" y="564" width="40" height="40" as="geometry" />
        </mxCell>
        <mxCell id="_82w5ZN5nvYz6WjIuBWI-4" value="&lt;font style=&quot;font-size: 15px;&quot;&gt;$$X$$&lt;/font&gt;" style="text;html=1;align=center;verticalAlign=middle;resizable=0;points=[];autosize=1;strokeColor=none;fillColor=none;" vertex="1" parent="1">
          <mxGeometry x="135" y="530" width="70" height="30" as="geometry" />
        </mxCell>
        <mxCell id="_82w5ZN5nvYz6WjIuBWI-26" value="&lt;font style=&quot;font-size: 15px;&quot;&gt;$$X$$&lt;/font&gt;" style="ellipse;whiteSpace=wrap;html=1;aspect=fixed;" vertex="1" parent="1">
          <mxGeometry x="65" y="520" width="20" height="20" as="geometry" />
        </mxCell>
        <mxCell id="_82w5ZN5nvYz6WjIuBWI-141" value="" style="group" vertex="1" connectable="0" parent="1">
          <mxGeometry x="65" y="50" width="722" height="387.5" as="geometry" />
        </mxCell>
        <mxCell id="_82w5ZN5nvYz6WjIuBWI-9" style="edgeStyle=orthogonalEdgeStyle;rounded=0;orthogonalLoop=1;jettySize=auto;html=1;" edge="1" parent="_82w5ZN5nvYz6WjIuBWI-141">
          <mxGeometry relative="1" as="geometry">
            <mxPoint x="70" y="319" as="targetPoint" />
            <mxPoint x="70" y="369" as="sourcePoint" />
          </mxGeometry>
        </mxCell>
        <mxCell id="_82w5ZN5nvYz6WjIuBWI-28" style="edgeStyle=orthogonalEdgeStyle;rounded=0;orthogonalLoop=1;jettySize=auto;html=1;" edge="1" parent="_82w5ZN5nvYz6WjIuBWI-141" target="_82w5ZN5nvYz6WjIuBWI-12">
          <mxGeometry relative="1" as="geometry">
            <mxPoint x="20" y="367" as="sourcePoint" />
          </mxGeometry>
        </mxCell>
        <mxCell id="_82w5ZN5nvYz6WjIuBWI-12" value="$$W_q$$" style="rounded=0;whiteSpace=wrap;html=1;" vertex="1" parent="_82w5ZN5nvYz6WjIuBWI-141">
          <mxGeometry y="289" width="40" height="30" as="geometry" />
        </mxCell>
        <mxCell id="_82w5ZN5nvYz6WjIuBWI-13" value="$$W_k$$" style="rounded=0;whiteSpace=wrap;html=1;" vertex="1" parent="_82w5ZN5nvYz6WjIuBWI-141">
          <mxGeometry x="50" y="289" width="40" height="30" as="geometry" />
        </mxCell>
        <mxCell id="_82w5ZN5nvYz6WjIuBWI-14" value="$$W_v$$" style="rounded=0;whiteSpace=wrap;html=1;" vertex="1" parent="_82w5ZN5nvYz6WjIuBWI-141">
          <mxGeometry x="100" y="289" width="40" height="30" as="geometry" />
        </mxCell>
        <mxCell id="_82w5ZN5nvYz6WjIuBWI-18" style="edgeStyle=orthogonalEdgeStyle;rounded=0;orthogonalLoop=1;jettySize=auto;html=1;" edge="1" parent="_82w5ZN5nvYz6WjIuBWI-141" source="_82w5ZN5nvYz6WjIuBWI-15">
          <mxGeometry relative="1" as="geometry">
            <mxPoint x="45" y="210" as="targetPoint" />
          </mxGeometry>
        </mxCell>
        <mxCell id="_82w5ZN5nvYz6WjIuBWI-15" value="&lt;font style=&quot;font-size: 15px;&quot;&gt;$$\times$$&lt;/font&gt;" style="ellipse;whiteSpace=wrap;html=1;aspect=fixed;" vertex="1" parent="_82w5ZN5nvYz6WjIuBWI-141">
          <mxGeometry x="35" y="240" width="20" height="20" as="geometry" />
        </mxCell>
        <mxCell id="_82w5ZN5nvYz6WjIuBWI-17" style="edgeStyle=orthogonalEdgeStyle;rounded=0;orthogonalLoop=1;jettySize=auto;html=1;entryX=0;entryY=0.5;entryDx=0;entryDy=0;" edge="1" parent="_82w5ZN5nvYz6WjIuBWI-141" source="_82w5ZN5nvYz6WjIuBWI-12" target="_82w5ZN5nvYz6WjIuBWI-15">
          <mxGeometry relative="1" as="geometry">
            <Array as="points">
              <mxPoint x="20" y="250" />
            </Array>
          </mxGeometry>
        </mxCell>
        <mxCell id="_82w5ZN5nvYz6WjIuBWI-16" style="edgeStyle=orthogonalEdgeStyle;rounded=0;orthogonalLoop=1;jettySize=auto;html=1;entryX=1;entryY=0.5;entryDx=0;entryDy=0;" edge="1" parent="_82w5ZN5nvYz6WjIuBWI-141" source="_82w5ZN5nvYz6WjIuBWI-13" target="_82w5ZN5nvYz6WjIuBWI-15">
          <mxGeometry relative="1" as="geometry">
            <Array as="points">
              <mxPoint x="70" y="250" />
            </Array>
          </mxGeometry>
        </mxCell>
        <mxCell id="_82w5ZN5nvYz6WjIuBWI-19" value="$$softmax$$" style="rounded=0;whiteSpace=wrap;html=1;" vertex="1" parent="_82w5ZN5nvYz6WjIuBWI-141">
          <mxGeometry x="15" y="190" width="60" height="20" as="geometry" />
        </mxCell>
        <mxCell id="_82w5ZN5nvYz6WjIuBWI-20" value="&lt;font style=&quot;font-size: 15px;&quot;&gt;$$\times$$&lt;/font&gt;" style="ellipse;whiteSpace=wrap;html=1;aspect=fixed;" vertex="1" parent="_82w5ZN5nvYz6WjIuBWI-141">
          <mxGeometry x="74" y="150" width="20" height="20" as="geometry" />
        </mxCell>
        <mxCell id="_82w5ZN5nvYz6WjIuBWI-21" style="edgeStyle=orthogonalEdgeStyle;rounded=0;orthogonalLoop=1;jettySize=auto;html=1;entryX=1;entryY=0.5;entryDx=0;entryDy=0;" edge="1" parent="_82w5ZN5nvYz6WjIuBWI-141" source="_82w5ZN5nvYz6WjIuBWI-14" target="_82w5ZN5nvYz6WjIuBWI-20">
          <mxGeometry relative="1" as="geometry">
            <Array as="points">
              <mxPoint x="120" y="160" />
            </Array>
          </mxGeometry>
        </mxCell>
        <mxCell id="_82w5ZN5nvYz6WjIuBWI-22" style="edgeStyle=orthogonalEdgeStyle;rounded=0;orthogonalLoop=1;jettySize=auto;html=1;entryX=0;entryY=0.5;entryDx=0;entryDy=0;" edge="1" parent="_82w5ZN5nvYz6WjIuBWI-141" source="_82w5ZN5nvYz6WjIuBWI-19" target="_82w5ZN5nvYz6WjIuBWI-20">
          <mxGeometry relative="1" as="geometry">
            <Array as="points">
              <mxPoint x="45" y="160" />
            </Array>
          </mxGeometry>
        </mxCell>
        <mxCell id="_82w5ZN5nvYz6WjIuBWI-37" style="edgeStyle=orthogonalEdgeStyle;rounded=0;orthogonalLoop=1;jettySize=auto;html=1;" edge="1" parent="_82w5ZN5nvYz6WjIuBWI-141" source="_82w5ZN5nvYz6WjIuBWI-23">
          <mxGeometry relative="1" as="geometry">
            <mxPoint x="85" as="targetPoint" />
            <Array as="points">
              <mxPoint x="85" />
              <mxPoint x="85" />
            </Array>
          </mxGeometry>
        </mxCell>
        <mxCell id="_82w5ZN5nvYz6WjIuBWI-23" value="$$FFNet$$" style="rounded=0;whiteSpace=wrap;html=1;" vertex="1" parent="_82w5ZN5nvYz6WjIuBWI-141">
          <mxGeometry x="58.5" y="60" width="51" height="20" as="geometry" />
        </mxCell>
        <mxCell id="_82w5ZN5nvYz6WjIuBWI-29" value="$$X^{pe}+S^\mathcal{E}$$" style="rounded=0;whiteSpace=wrap;html=1;dashed=1;" vertex="1" parent="_82w5ZN5nvYz6WjIuBWI-141">
          <mxGeometry x="10" y="367" width="70" height="20" as="geometry" />
        </mxCell>
        <mxCell id="_82w5ZN5nvYz6WjIuBWI-31" style="edgeStyle=orthogonalEdgeStyle;rounded=0;orthogonalLoop=1;jettySize=auto;html=1;entryX=0.5;entryY=1;entryDx=0;entryDy=0;" edge="1" parent="_82w5ZN5nvYz6WjIuBWI-141" source="_82w5ZN5nvYz6WjIuBWI-30" target="_82w5ZN5nvYz6WjIuBWI-14">
          <mxGeometry relative="1" as="geometry" />
        </mxCell>
        <mxCell id="_82w5ZN5nvYz6WjIuBWI-30" value="$$X$$" style="rounded=0;whiteSpace=wrap;html=1;dashed=1;" vertex="1" parent="_82w5ZN5nvYz6WjIuBWI-141">
          <mxGeometry x="100" y="367" width="40" height="20" as="geometry" />
        </mxCell>
        <mxCell id="_82w5ZN5nvYz6WjIuBWI-34" style="edgeStyle=orthogonalEdgeStyle;rounded=0;orthogonalLoop=1;jettySize=auto;html=1;entryX=0.5;entryY=1;entryDx=0;entryDy=0;" edge="1" parent="_82w5ZN5nvYz6WjIuBWI-141" source="_82w5ZN5nvYz6WjIuBWI-32" target="_82w5ZN5nvYz6WjIuBWI-23">
          <mxGeometry relative="1" as="geometry" />
        </mxCell>
        <mxCell id="_82w5ZN5nvYz6WjIuBWI-32" value="&lt;font style=&quot;font-size: 15px;&quot;&gt;$$+$$&lt;/font&gt;" style="ellipse;whiteSpace=wrap;html=1;aspect=fixed;" vertex="1" parent="_82w5ZN5nvYz6WjIuBWI-141">
          <mxGeometry x="74" y="110" width="20" height="20" as="geometry" />
        </mxCell>
        <mxCell id="_82w5ZN5nvYz6WjIuBWI-33" style="edgeStyle=orthogonalEdgeStyle;rounded=0;orthogonalLoop=1;jettySize=auto;html=1;entryX=0.5;entryY=1;entryDx=0;entryDy=0;" edge="1" parent="_82w5ZN5nvYz6WjIuBWI-141" source="_82w5ZN5nvYz6WjIuBWI-20" target="_82w5ZN5nvYz6WjIuBWI-32">
          <mxGeometry relative="1" as="geometry" />
        </mxCell>
        <mxCell id="_82w5ZN5nvYz6WjIuBWI-25" value="" style="endArrow=classic;html=1;rounded=0;exitX=1;exitY=0.5;exitDx=0;exitDy=0;entryX=1;entryY=0.5;entryDx=0;entryDy=0;" edge="1" parent="_82w5ZN5nvYz6WjIuBWI-141" source="_82w5ZN5nvYz6WjIuBWI-30" target="_82w5ZN5nvYz6WjIuBWI-32">
          <mxGeometry width="50" height="50" relative="1" as="geometry">
            <mxPoint x="-25" y="408" as="sourcePoint" />
            <mxPoint x="105" y="120" as="targetPoint" />
            <Array as="points">
              <mxPoint x="165" y="377" />
              <mxPoint x="165" y="220" />
              <mxPoint x="165" y="120" />
            </Array>
          </mxGeometry>
        </mxCell>
        <mxCell id="_82w5ZN5nvYz6WjIuBWI-35" value="" style="endArrow=classic;html=1;rounded=0;" edge="1" parent="_82w5ZN5nvYz6WjIuBWI-141">
          <mxGeometry width="50" height="50" relative="1" as="geometry">
            <mxPoint x="84" y="100" as="sourcePoint" />
            <mxPoint x="85" y="40" as="targetPoint" />
            <Array as="points">
              <mxPoint x="115" y="100" />
              <mxPoint x="115" y="40" />
            </Array>
          </mxGeometry>
        </mxCell>
        <mxCell id="_82w5ZN5nvYz6WjIuBWI-139" value="" style="group" vertex="1" connectable="0" parent="_82w5ZN5nvYz6WjIuBWI-141">
          <mxGeometry x="455" width="267" height="387" as="geometry" />
        </mxCell>
        <mxCell id="_82w5ZN5nvYz6WjIuBWI-38" style="edgeStyle=orthogonalEdgeStyle;rounded=0;orthogonalLoop=1;jettySize=auto;html=1;" edge="1" parent="_82w5ZN5nvYz6WjIuBWI-139">
          <mxGeometry relative="1" as="geometry">
            <mxPoint x="172" y="319" as="targetPoint" />
            <mxPoint x="172" y="369" as="sourcePoint" />
          </mxGeometry>
        </mxCell>
        <mxCell id="_82w5ZN5nvYz6WjIuBWI-39" style="edgeStyle=orthogonalEdgeStyle;rounded=0;orthogonalLoop=1;jettySize=auto;html=1;" edge="1" parent="_82w5ZN5nvYz6WjIuBWI-139">
          <mxGeometry relative="1" as="geometry">
            <mxPoint x="122" y="367" as="sourcePoint" />
            <mxPoint x="122" y="319" as="targetPoint" />
          </mxGeometry>
        </mxCell>
        <mxCell id="_82w5ZN5nvYz6WjIuBWI-40" style="edgeStyle=orthogonalEdgeStyle;rounded=0;orthogonalLoop=1;jettySize=auto;html=1;entryX=0;entryY=0.5;entryDx=0;entryDy=0;" edge="1" target="_82w5ZN5nvYz6WjIuBWI-47" parent="_82w5ZN5nvYz6WjIuBWI-139">
          <mxGeometry relative="1" as="geometry">
            <mxPoint x="122" y="289" as="sourcePoint" />
            <Array as="points">
              <mxPoint x="122" y="250" />
            </Array>
          </mxGeometry>
        </mxCell>
        <mxCell id="_82w5ZN5nvYz6WjIuBWI-41" value="$$W_{q2}$$" style="rounded=0;whiteSpace=wrap;html=1;" vertex="1" parent="_82w5ZN5nvYz6WjIuBWI-139">
          <mxGeometry x="102" y="289" width="40" height="30" as="geometry" />
        </mxCell>
        <mxCell id="_82w5ZN5nvYz6WjIuBWI-43" value="$$W_{k2}$$" style="rounded=0;whiteSpace=wrap;html=1;" vertex="1" parent="_82w5ZN5nvYz6WjIuBWI-139">
          <mxGeometry x="152" y="289" width="40" height="30" as="geometry" />
        </mxCell>
        <mxCell id="_82w5ZN5nvYz6WjIuBWI-45" value="$$W_v$$" style="rounded=0;whiteSpace=wrap;html=1;" vertex="1" parent="_82w5ZN5nvYz6WjIuBWI-139">
          <mxGeometry x="202" y="289" width="40" height="30" as="geometry" />
        </mxCell>
        <mxCell id="_82w5ZN5nvYz6WjIuBWI-46" style="edgeStyle=orthogonalEdgeStyle;rounded=0;orthogonalLoop=1;jettySize=auto;html=1;" edge="1" source="_82w5ZN5nvYz6WjIuBWI-47" parent="_82w5ZN5nvYz6WjIuBWI-139">
          <mxGeometry relative="1" as="geometry">
            <mxPoint x="147" y="210" as="targetPoint" />
          </mxGeometry>
        </mxCell>
        <mxCell id="_82w5ZN5nvYz6WjIuBWI-47" value="&lt;font style=&quot;font-size: 15px;&quot;&gt;$$\times$$&lt;/font&gt;" style="ellipse;whiteSpace=wrap;html=1;aspect=fixed;" vertex="1" parent="_82w5ZN5nvYz6WjIuBWI-139">
          <mxGeometry x="137" y="240" width="20" height="20" as="geometry" />
        </mxCell>
        <mxCell id="_82w5ZN5nvYz6WjIuBWI-42" style="edgeStyle=orthogonalEdgeStyle;rounded=0;orthogonalLoop=1;jettySize=auto;html=1;entryX=1;entryY=0.5;entryDx=0;entryDy=0;" edge="1" source="_82w5ZN5nvYz6WjIuBWI-43" target="_82w5ZN5nvYz6WjIuBWI-47" parent="_82w5ZN5nvYz6WjIuBWI-139">
          <mxGeometry relative="1" as="geometry">
            <Array as="points">
              <mxPoint x="172" y="250" />
            </Array>
          </mxGeometry>
        </mxCell>
        <mxCell id="_82w5ZN5nvYz6WjIuBWI-49" value="$$softmax$$" style="rounded=0;whiteSpace=wrap;html=1;" vertex="1" parent="_82w5ZN5nvYz6WjIuBWI-139">
          <mxGeometry x="117" y="190" width="60" height="20" as="geometry" />
        </mxCell>
        <mxCell id="_82w5ZN5nvYz6WjIuBWI-51" value="&lt;font style=&quot;font-size: 15px;&quot;&gt;$$\times$$&lt;/font&gt;" style="ellipse;whiteSpace=wrap;html=1;aspect=fixed;" vertex="1" parent="_82w5ZN5nvYz6WjIuBWI-139">
          <mxGeometry x="144" y="119" width="20" height="20" as="geometry" />
        </mxCell>
        <mxCell id="_82w5ZN5nvYz6WjIuBWI-44" style="edgeStyle=orthogonalEdgeStyle;rounded=0;orthogonalLoop=1;jettySize=auto;html=1;entryX=1;entryY=0.5;entryDx=0;entryDy=0;" edge="1" source="_82w5ZN5nvYz6WjIuBWI-45" target="_82w5ZN5nvYz6WjIuBWI-51" parent="_82w5ZN5nvYz6WjIuBWI-139">
          <mxGeometry relative="1" as="geometry">
            <Array as="points">
              <mxPoint x="222" y="130" />
              <mxPoint x="164" y="130" />
            </Array>
          </mxGeometry>
        </mxCell>
        <mxCell id="_82w5ZN5nvYz6WjIuBWI-52" style="edgeStyle=orthogonalEdgeStyle;rounded=0;orthogonalLoop=1;jettySize=auto;html=1;" edge="1" source="_82w5ZN5nvYz6WjIuBWI-53" parent="_82w5ZN5nvYz6WjIuBWI-139">
          <mxGeometry relative="1" as="geometry">
            <mxPoint x="154" as="targetPoint" />
          </mxGeometry>
        </mxCell>
        <mxCell id="_82w5ZN5nvYz6WjIuBWI-53" value="$$FFNet$$" style="rounded=0;whiteSpace=wrap;html=1;" vertex="1" parent="_82w5ZN5nvYz6WjIuBWI-139">
          <mxGeometry x="128.5" y="35" width="51" height="20" as="geometry" />
        </mxCell>
        <mxCell id="_82w5ZN5nvYz6WjIuBWI-55" value="$$X + S^\mathcal{E}$$" style="rounded=0;whiteSpace=wrap;html=1;dashed=1;" vertex="1" parent="_82w5ZN5nvYz6WjIuBWI-139">
          <mxGeometry x="112" y="367" width="70" height="20" as="geometry" />
        </mxCell>
        <mxCell id="_82w5ZN5nvYz6WjIuBWI-56" style="edgeStyle=orthogonalEdgeStyle;rounded=0;orthogonalLoop=1;jettySize=auto;html=1;entryX=0.5;entryY=1;entryDx=0;entryDy=0;" edge="1" source="_82w5ZN5nvYz6WjIuBWI-57" target="_82w5ZN5nvYz6WjIuBWI-45" parent="_82w5ZN5nvYz6WjIuBWI-139">
          <mxGeometry relative="1" as="geometry" />
        </mxCell>
        <mxCell id="_82w5ZN5nvYz6WjIuBWI-57" value="$$X$$" style="rounded=0;whiteSpace=wrap;html=1;dashed=1;" vertex="1" parent="_82w5ZN5nvYz6WjIuBWI-139">
          <mxGeometry x="202" y="367" width="40" height="20" as="geometry" />
        </mxCell>
        <mxCell id="_82w5ZN5nvYz6WjIuBWI-58" style="edgeStyle=orthogonalEdgeStyle;rounded=0;orthogonalLoop=1;jettySize=auto;html=1;entryX=0.5;entryY=1;entryDx=0;entryDy=0;" edge="1" source="_82w5ZN5nvYz6WjIuBWI-59" target="_82w5ZN5nvYz6WjIuBWI-53" parent="_82w5ZN5nvYz6WjIuBWI-139">
          <mxGeometry relative="1" as="geometry" />
        </mxCell>
        <mxCell id="_82w5ZN5nvYz6WjIuBWI-59" value="&lt;font style=&quot;font-size: 15px;&quot;&gt;$$+$$&lt;/font&gt;" style="ellipse;whiteSpace=wrap;html=1;aspect=fixed;" vertex="1" parent="_82w5ZN5nvYz6WjIuBWI-139">
          <mxGeometry x="144" y="82" width="20" height="20" as="geometry" />
        </mxCell>
        <mxCell id="_82w5ZN5nvYz6WjIuBWI-50" style="edgeStyle=orthogonalEdgeStyle;rounded=0;orthogonalLoop=1;jettySize=auto;html=1;entryX=0.5;entryY=1;entryDx=0;entryDy=0;" edge="1" source="_82w5ZN5nvYz6WjIuBWI-51" target="_82w5ZN5nvYz6WjIuBWI-59" parent="_82w5ZN5nvYz6WjIuBWI-139">
          <mxGeometry relative="1" as="geometry" />
        </mxCell>
        <mxCell id="_82w5ZN5nvYz6WjIuBWI-54" value="" style="endArrow=classic;html=1;rounded=0;exitX=1;exitY=0.5;exitDx=0;exitDy=0;entryX=1;entryY=0.5;entryDx=0;entryDy=0;" edge="1" source="_82w5ZN5nvYz6WjIuBWI-57" target="_82w5ZN5nvYz6WjIuBWI-59" parent="_82w5ZN5nvYz6WjIuBWI-139">
          <mxGeometry width="50" height="50" relative="1" as="geometry">
            <mxPoint x="77" y="408" as="sourcePoint" />
            <mxPoint x="207" y="120" as="targetPoint" />
            <Array as="points">
              <mxPoint x="267" y="377" />
              <mxPoint x="267" y="220" />
              <mxPoint x="266" y="92" />
            </Array>
          </mxGeometry>
        </mxCell>
        <mxCell id="_82w5ZN5nvYz6WjIuBWI-60" value="" style="endArrow=classic;html=1;rounded=0;" edge="1" parent="_82w5ZN5nvYz6WjIuBWI-139">
          <mxGeometry width="50" height="50" relative="1" as="geometry">
            <mxPoint x="154" y="76" as="sourcePoint" />
            <mxPoint x="156" y="20" as="targetPoint" />
            <Array as="points">
              <mxPoint x="166" y="76" />
              <mxPoint x="185" y="76" />
              <mxPoint x="185" y="20" />
            </Array>
          </mxGeometry>
        </mxCell>
        <mxCell id="_82w5ZN5nvYz6WjIuBWI-61" style="edgeStyle=orthogonalEdgeStyle;rounded=0;orthogonalLoop=1;jettySize=auto;html=1;" edge="1" parent="_82w5ZN5nvYz6WjIuBWI-139">
          <mxGeometry relative="1" as="geometry">
            <mxPoint x="69" y="319" as="targetPoint" />
            <mxPoint x="69" y="369" as="sourcePoint" />
          </mxGeometry>
        </mxCell>
        <mxCell id="_82w5ZN5nvYz6WjIuBWI-62" style="edgeStyle=orthogonalEdgeStyle;rounded=0;orthogonalLoop=1;jettySize=auto;html=1;" edge="1" parent="_82w5ZN5nvYz6WjIuBWI-139">
          <mxGeometry relative="1" as="geometry">
            <mxPoint x="19" y="367" as="sourcePoint" />
            <mxPoint x="19" y="319" as="targetPoint" />
          </mxGeometry>
        </mxCell>
        <mxCell id="_82w5ZN5nvYz6WjIuBWI-63" style="edgeStyle=orthogonalEdgeStyle;rounded=0;orthogonalLoop=1;jettySize=auto;html=1;entryX=0;entryY=0.5;entryDx=0;entryDy=0;" edge="1" parent="_82w5ZN5nvYz6WjIuBWI-139" target="_82w5ZN5nvYz6WjIuBWI-68">
          <mxGeometry relative="1" as="geometry">
            <Array as="points">
              <mxPoint x="19" y="250" />
            </Array>
            <mxPoint x="19.028571428571468" y="289" as="sourcePoint" />
          </mxGeometry>
        </mxCell>
        <mxCell id="_82w5ZN5nvYz6WjIuBWI-64" value="$$W_{q1}$$" style="rounded=0;whiteSpace=wrap;html=1;" vertex="1" parent="_82w5ZN5nvYz6WjIuBWI-139">
          <mxGeometry y="289" width="40" height="30" as="geometry" />
        </mxCell>
        <mxCell id="_82w5ZN5nvYz6WjIuBWI-66" value="$$W_{k1}$$" style="rounded=0;whiteSpace=wrap;html=1;" vertex="1" parent="_82w5ZN5nvYz6WjIuBWI-139">
          <mxGeometry x="49" y="289" width="40" height="30" as="geometry" />
        </mxCell>
        <mxCell id="_82w5ZN5nvYz6WjIuBWI-67" style="edgeStyle=orthogonalEdgeStyle;rounded=0;orthogonalLoop=1;jettySize=auto;html=1;" edge="1" parent="_82w5ZN5nvYz6WjIuBWI-139" source="_82w5ZN5nvYz6WjIuBWI-68">
          <mxGeometry relative="1" as="geometry">
            <mxPoint x="44" y="210" as="targetPoint" />
          </mxGeometry>
        </mxCell>
        <mxCell id="_82w5ZN5nvYz6WjIuBWI-68" value="&lt;font style=&quot;font-size: 15px;&quot;&gt;$$\times$$&lt;/font&gt;" style="ellipse;whiteSpace=wrap;html=1;aspect=fixed;" vertex="1" parent="_82w5ZN5nvYz6WjIuBWI-139">
          <mxGeometry x="34" y="240" width="20" height="20" as="geometry" />
        </mxCell>
        <mxCell id="_82w5ZN5nvYz6WjIuBWI-65" style="edgeStyle=orthogonalEdgeStyle;rounded=0;orthogonalLoop=1;jettySize=auto;html=1;entryX=1;entryY=0.5;entryDx=0;entryDy=0;" edge="1" parent="_82w5ZN5nvYz6WjIuBWI-139" source="_82w5ZN5nvYz6WjIuBWI-66" target="_82w5ZN5nvYz6WjIuBWI-68">
          <mxGeometry relative="1" as="geometry">
            <Array as="points">
              <mxPoint x="69" y="250" />
            </Array>
          </mxGeometry>
        </mxCell>
        <mxCell id="_82w5ZN5nvYz6WjIuBWI-69" value="$$softmax$$" style="rounded=0;whiteSpace=wrap;html=1;" vertex="1" parent="_82w5ZN5nvYz6WjIuBWI-139">
          <mxGeometry x="14" y="190" width="60" height="20" as="geometry" />
        </mxCell>
        <mxCell id="_82w5ZN5nvYz6WjIuBWI-70" value="$$X^{pe}$$" style="rounded=0;whiteSpace=wrap;html=1;dashed=1;" vertex="1" parent="_82w5ZN5nvYz6WjIuBWI-139">
          <mxGeometry x="9" y="367" width="70" height="20" as="geometry" />
        </mxCell>
        <mxCell id="_82w5ZN5nvYz6WjIuBWI-73" style="edgeStyle=orthogonalEdgeStyle;rounded=0;orthogonalLoop=1;jettySize=auto;html=1;entryX=0;entryY=0.5;entryDx=0;entryDy=0;" edge="1" parent="_82w5ZN5nvYz6WjIuBWI-139" source="_82w5ZN5nvYz6WjIuBWI-71" target="_82w5ZN5nvYz6WjIuBWI-51">
          <mxGeometry relative="1" as="geometry">
            <mxPoint x="95" y="110" as="targetPoint" />
            <Array as="points">
              <mxPoint x="96" y="130" />
              <mxPoint x="144" y="130" />
            </Array>
          </mxGeometry>
        </mxCell>
        <mxCell id="_82w5ZN5nvYz6WjIuBWI-71" value="&lt;font style=&quot;font-size: 15px;&quot;&gt;$$+$$&lt;/font&gt;" style="ellipse;whiteSpace=wrap;html=1;aspect=fixed;" vertex="1" parent="_82w5ZN5nvYz6WjIuBWI-139">
          <mxGeometry x="85" y="150" width="20" height="20" as="geometry" />
        </mxCell>
        <mxCell id="_82w5ZN5nvYz6WjIuBWI-48" style="edgeStyle=orthogonalEdgeStyle;rounded=0;orthogonalLoop=1;jettySize=auto;html=1;entryX=1;entryY=0.5;entryDx=0;entryDy=0;" edge="1" source="_82w5ZN5nvYz6WjIuBWI-49" target="_82w5ZN5nvYz6WjIuBWI-71" parent="_82w5ZN5nvYz6WjIuBWI-139">
          <mxGeometry relative="1" as="geometry">
            <mxPoint x="106" y="160" as="targetPoint" />
            <Array as="points">
              <mxPoint x="147" y="160" />
            </Array>
          </mxGeometry>
        </mxCell>
        <mxCell id="_82w5ZN5nvYz6WjIuBWI-72" style="edgeStyle=orthogonalEdgeStyle;rounded=0;orthogonalLoop=1;jettySize=auto;html=1;entryX=0;entryY=0.5;entryDx=0;entryDy=0;" edge="1" parent="_82w5ZN5nvYz6WjIuBWI-139" source="_82w5ZN5nvYz6WjIuBWI-69" target="_82w5ZN5nvYz6WjIuBWI-71">
          <mxGeometry relative="1" as="geometry">
            <Array as="points">
              <mxPoint x="46" y="160" />
            </Array>
          </mxGeometry>
        </mxCell>
        <mxCell id="_82w5ZN5nvYz6WjIuBWI-74" value="$$\beta_1$$" style="text;html=1;align=center;verticalAlign=middle;resizable=0;points=[];autosize=1;strokeColor=none;fillColor=none;" vertex="1" parent="_82w5ZN5nvYz6WjIuBWI-139">
          <mxGeometry x="2" y="135" width="90" height="30" as="geometry" />
        </mxCell>
        <mxCell id="_82w5ZN5nvYz6WjIuBWI-75" value="$$\beta_2$$" style="text;html=1;align=center;verticalAlign=middle;resizable=0;points=[];autosize=1;strokeColor=none;fillColor=none;" vertex="1" parent="_82w5ZN5nvYz6WjIuBWI-139">
          <mxGeometry x="102" y="135" width="90" height="30" as="geometry" />
        </mxCell>
        <mxCell id="_82w5ZN5nvYz6WjIuBWI-140" value="" style="group" vertex="1" connectable="0" parent="_82w5ZN5nvYz6WjIuBWI-141">
          <mxGeometry x="235" y="0.5" width="180" height="387" as="geometry" />
        </mxCell>
        <mxCell id="_82w5ZN5nvYz6WjIuBWI-114" style="edgeStyle=orthogonalEdgeStyle;rounded=0;orthogonalLoop=1;jettySize=auto;html=1;" edge="1" parent="_82w5ZN5nvYz6WjIuBWI-140">
          <mxGeometry relative="1" as="geometry">
            <mxPoint x="82" y="319" as="targetPoint" />
            <mxPoint x="82" y="369" as="sourcePoint" />
          </mxGeometry>
        </mxCell>
        <mxCell id="_82w5ZN5nvYz6WjIuBWI-115" style="edgeStyle=orthogonalEdgeStyle;rounded=0;orthogonalLoop=1;jettySize=auto;html=1;" edge="1" parent="_82w5ZN5nvYz6WjIuBWI-140" target="_82w5ZN5nvYz6WjIuBWI-117">
          <mxGeometry relative="1" as="geometry">
            <mxPoint x="25" y="367" as="sourcePoint" />
            <Array as="points">
              <mxPoint x="20" y="367" />
            </Array>
          </mxGeometry>
        </mxCell>
        <mxCell id="_82w5ZN5nvYz6WjIuBWI-117" value="$$W_q$$" style="rounded=0;whiteSpace=wrap;html=1;" vertex="1" parent="_82w5ZN5nvYz6WjIuBWI-140">
          <mxGeometry y="289" width="40" height="30" as="geometry" />
        </mxCell>
        <mxCell id="_82w5ZN5nvYz6WjIuBWI-118" style="edgeStyle=orthogonalEdgeStyle;rounded=0;orthogonalLoop=1;jettySize=auto;html=1;entryX=1;entryY=0.5;entryDx=0;entryDy=0;" edge="1" parent="_82w5ZN5nvYz6WjIuBWI-140">
          <mxGeometry relative="1" as="geometry">
            <Array as="points">
              <mxPoint x="82" y="250" />
            </Array>
            <mxPoint x="81.99999999999989" y="289" as="sourcePoint" />
            <mxPoint x="61.99999999999545" y="250" as="targetPoint" />
          </mxGeometry>
        </mxCell>
        <mxCell id="_82w5ZN5nvYz6WjIuBWI-119" value="$$W_k$$" style="rounded=0;whiteSpace=wrap;html=1;" vertex="1" parent="_82w5ZN5nvYz6WjIuBWI-140">
          <mxGeometry x="62" y="289" width="40" height="30" as="geometry" />
        </mxCell>
        <mxCell id="_82w5ZN5nvYz6WjIuBWI-121" value="$$W_v$$" style="rounded=0;whiteSpace=wrap;html=1;" vertex="1" parent="_82w5ZN5nvYz6WjIuBWI-140">
          <mxGeometry x="115" y="289" width="40" height="30" as="geometry" />
        </mxCell>
        <mxCell id="_82w5ZN5nvYz6WjIuBWI-123" value="&lt;font style=&quot;font-size: 15px;&quot;&gt;$$\times$$&lt;/font&gt;" style="ellipse;whiteSpace=wrap;html=1;aspect=fixed;" vertex="1" parent="_82w5ZN5nvYz6WjIuBWI-140">
          <mxGeometry x="43" y="240" width="20" height="20" as="geometry" />
        </mxCell>
        <mxCell id="_82w5ZN5nvYz6WjIuBWI-138" style="edgeStyle=orthogonalEdgeStyle;rounded=0;orthogonalLoop=1;jettySize=auto;html=1;entryX=0;entryY=0.5;entryDx=0;entryDy=0;" edge="1" parent="_82w5ZN5nvYz6WjIuBWI-140" source="_82w5ZN5nvYz6WjIuBWI-117" target="_82w5ZN5nvYz6WjIuBWI-123">
          <mxGeometry relative="1" as="geometry">
            <Array as="points">
              <mxPoint x="23" y="250" />
            </Array>
          </mxGeometry>
        </mxCell>
        <mxCell id="_82w5ZN5nvYz6WjIuBWI-124" style="edgeStyle=orthogonalEdgeStyle;rounded=0;orthogonalLoop=1;jettySize=auto;html=1;entryX=0;entryY=0.5;entryDx=0;entryDy=0;" edge="1" parent="_82w5ZN5nvYz6WjIuBWI-140" target="_82w5ZN5nvYz6WjIuBWI-127">
          <mxGeometry relative="1" as="geometry">
            <Array as="points">
              <mxPoint x="53" y="160" />
            </Array>
            <mxPoint x="53" y="190" as="sourcePoint" />
            <mxPoint x="81.99999999999386" y="160" as="targetPoint" />
          </mxGeometry>
        </mxCell>
        <mxCell id="_82w5ZN5nvYz6WjIuBWI-125" value="$$softmax$$" style="rounded=0;whiteSpace=wrap;html=1;" vertex="1" parent="_82w5ZN5nvYz6WjIuBWI-140">
          <mxGeometry x="23" y="190" width="60" height="20" as="geometry" />
        </mxCell>
        <mxCell id="_82w5ZN5nvYz6WjIuBWI-122" style="edgeStyle=orthogonalEdgeStyle;rounded=0;orthogonalLoop=1;jettySize=auto;html=1;entryX=0.5;entryY=1;entryDx=0;entryDy=0;" edge="1" parent="_82w5ZN5nvYz6WjIuBWI-140" source="_82w5ZN5nvYz6WjIuBWI-123" target="_82w5ZN5nvYz6WjIuBWI-125">
          <mxGeometry relative="1" as="geometry">
            <mxPoint x="60" y="210" as="targetPoint" />
          </mxGeometry>
        </mxCell>
        <mxCell id="_82w5ZN5nvYz6WjIuBWI-127" value="&lt;font style=&quot;font-size: 15px;&quot;&gt;$$\times$$&lt;/font&gt;" style="ellipse;whiteSpace=wrap;html=1;aspect=fixed;" vertex="1" parent="_82w5ZN5nvYz6WjIuBWI-140">
          <mxGeometry x="89" y="150" width="20" height="20" as="geometry" />
        </mxCell>
        <mxCell id="_82w5ZN5nvYz6WjIuBWI-120" style="edgeStyle=orthogonalEdgeStyle;rounded=0;orthogonalLoop=1;jettySize=auto;html=1;entryX=1;entryY=0.5;entryDx=0;entryDy=0;" edge="1" parent="_82w5ZN5nvYz6WjIuBWI-140" source="_82w5ZN5nvYz6WjIuBWI-121" target="_82w5ZN5nvYz6WjIuBWI-127">
          <mxGeometry relative="1" as="geometry">
            <Array as="points">
              <mxPoint x="135" y="160" />
            </Array>
          </mxGeometry>
        </mxCell>
        <mxCell id="_82w5ZN5nvYz6WjIuBWI-128" style="edgeStyle=orthogonalEdgeStyle;rounded=0;orthogonalLoop=1;jettySize=auto;html=1;" edge="1" parent="_82w5ZN5nvYz6WjIuBWI-140" source="_82w5ZN5nvYz6WjIuBWI-129">
          <mxGeometry relative="1" as="geometry">
            <mxPoint x="100" as="targetPoint" />
            <Array as="points">
              <mxPoint x="100" />
              <mxPoint x="100" />
            </Array>
          </mxGeometry>
        </mxCell>
        <mxCell id="_82w5ZN5nvYz6WjIuBWI-129" value="$$FFNet$$" style="rounded=0;whiteSpace=wrap;html=1;" vertex="1" parent="_82w5ZN5nvYz6WjIuBWI-140">
          <mxGeometry x="73.5" y="60" width="51" height="20" as="geometry" />
        </mxCell>
        <mxCell id="_82w5ZN5nvYz6WjIuBWI-131" value="$$X^{pe}$$" style="rounded=0;whiteSpace=wrap;html=1;dashed=1;" vertex="1" parent="_82w5ZN5nvYz6WjIuBWI-140">
          <mxGeometry y="367" width="39" height="20" as="geometry" />
        </mxCell>
        <mxCell id="_82w5ZN5nvYz6WjIuBWI-132" style="edgeStyle=orthogonalEdgeStyle;rounded=0;orthogonalLoop=1;jettySize=auto;html=1;entryX=0.5;entryY=1;entryDx=0;entryDy=0;" edge="1" parent="_82w5ZN5nvYz6WjIuBWI-140" source="_82w5ZN5nvYz6WjIuBWI-133" target="_82w5ZN5nvYz6WjIuBWI-121">
          <mxGeometry relative="1" as="geometry" />
        </mxCell>
        <mxCell id="_82w5ZN5nvYz6WjIuBWI-133" value="$$X$$" style="rounded=0;whiteSpace=wrap;html=1;dashed=1;" vertex="1" parent="_82w5ZN5nvYz6WjIuBWI-140">
          <mxGeometry x="115" y="367" width="40" height="20" as="geometry" />
        </mxCell>
        <mxCell id="_82w5ZN5nvYz6WjIuBWI-134" style="edgeStyle=orthogonalEdgeStyle;rounded=0;orthogonalLoop=1;jettySize=auto;html=1;entryX=0.5;entryY=1;entryDx=0;entryDy=0;" edge="1" parent="_82w5ZN5nvYz6WjIuBWI-140" source="_82w5ZN5nvYz6WjIuBWI-135" target="_82w5ZN5nvYz6WjIuBWI-129">
          <mxGeometry relative="1" as="geometry" />
        </mxCell>
        <mxCell id="_82w5ZN5nvYz6WjIuBWI-135" value="&lt;font style=&quot;font-size: 15px;&quot;&gt;$$+$$&lt;/font&gt;" style="ellipse;whiteSpace=wrap;html=1;aspect=fixed;" vertex="1" parent="_82w5ZN5nvYz6WjIuBWI-140">
          <mxGeometry x="89" y="110" width="20" height="20" as="geometry" />
        </mxCell>
        <mxCell id="_82w5ZN5nvYz6WjIuBWI-126" style="edgeStyle=orthogonalEdgeStyle;rounded=0;orthogonalLoop=1;jettySize=auto;html=1;entryX=0.5;entryY=1;entryDx=0;entryDy=0;" edge="1" parent="_82w5ZN5nvYz6WjIuBWI-140" source="_82w5ZN5nvYz6WjIuBWI-127" target="_82w5ZN5nvYz6WjIuBWI-135">
          <mxGeometry relative="1" as="geometry" />
        </mxCell>
        <mxCell id="_82w5ZN5nvYz6WjIuBWI-130" value="" style="endArrow=classic;html=1;rounded=0;exitX=1;exitY=0.5;exitDx=0;exitDy=0;entryX=1;entryY=0.5;entryDx=0;entryDy=0;" edge="1" parent="_82w5ZN5nvYz6WjIuBWI-140" source="_82w5ZN5nvYz6WjIuBWI-133" target="_82w5ZN5nvYz6WjIuBWI-135">
          <mxGeometry width="50" height="50" relative="1" as="geometry">
            <mxPoint x="-10" y="408" as="sourcePoint" />
            <mxPoint x="120" y="120" as="targetPoint" />
            <Array as="points">
              <mxPoint x="180" y="377" />
              <mxPoint x="180" y="220" />
              <mxPoint x="180" y="120" />
            </Array>
          </mxGeometry>
        </mxCell>
        <mxCell id="_82w5ZN5nvYz6WjIuBWI-136" value="" style="endArrow=classic;html=1;rounded=0;" edge="1" parent="_82w5ZN5nvYz6WjIuBWI-140">
          <mxGeometry width="50" height="50" relative="1" as="geometry">
            <mxPoint x="99" y="100" as="sourcePoint" />
            <mxPoint x="100" y="40" as="targetPoint" />
            <Array as="points">
              <mxPoint x="130" y="100" />
              <mxPoint x="130" y="40" />
            </Array>
          </mxGeometry>
        </mxCell>
        <mxCell id="_82w5ZN5nvYz6WjIuBWI-137" value="$$X + S^\mathcal{E}$$" style="rounded=0;whiteSpace=wrap;html=1;dashed=1;" vertex="1" parent="_82w5ZN5nvYz6WjIuBWI-140">
          <mxGeometry x="57" y="367" width="50" height="20" as="geometry" />
        </mxCell>
      </root>
    </mxGraphModel>
  </diagram>
</mxfile>
